<svg width="16" height="16" viewBox="0 0 16 16" fill="none" xmlns="http://www.w3.org/2000/svg">
<path d="M1.00401 3.10489C0.625695 3.36202 0.377197 3.79589 0.377197 4.2878V12.8633C0.377197 13.6527 1.01709 14.2926 1.80646 14.2926H10.7932L9.54258 12.8633H1.80646V7.33682C2.48875 7.88027 3.45633 8.64287 4.93111 9.79771C5.02487 9.87151 5.12878 9.95815 5.24178 10.0524C5.91319 10.6122 6.90582 11.4399 7.99991 11.4341C8.09343 11.4346 8.18616 11.429 8.27798 11.4181L6.03343 8.85285C5.95307 8.78595 5.87932 8.72511 5.81395 8.67369C3.53884 6.89218 2.47419 6.04659 1.80646 5.50282V4.2878H2.03904L1.00401 3.10489Z" fill="#172B4D"/>
<path d="M10.2583 8.61693C12.484 6.87389 13.5328 6.0407 14.1934 5.50282V4.2878H6.47038L5.21979 2.85854H14.1934C14.9827 2.85854 15.6226 3.49843 15.6226 4.2878V12.8633C15.6226 13.3517 15.3777 13.7828 15.004 14.0406L13.9739 12.8633H14.1934V7.33685C13.5317 7.86388 12.6015 8.59717 11.2009 9.69419L10.2583 8.61693Z" fill="#172B4D"/>
<path d="M0.377197 0.94123L1.45283 6.10352e-05L14.6292 15.0589L13.5536 16.0001L0.377197 0.94123Z" fill="#172B4D"/>
</svg>
