<svg width="16" height="16" viewBox="0 0 16 16" fill="none" xmlns="http://www.w3.org/2000/svg">
<path d="M1 2.4684V13.9906C1 14.5469 1.44688 15 1.99688 15H11.9651L8.60938 11.1649V13H6.53438V8.79345L5.23438 7.30773V13H3.15625V6.31877H4.36905L1 2.4684Z" fill="#172B4D"/>
<path d="M13.0094 10.4696V9.33752C13.0094 7.53752 12.6187 6.15315 10.5188 6.15315C10.1025 6.15315 9.74257 6.24722 9.4438 6.39459L4.7236 1.00002H14C14.55 1.00002 15 1.45315 15 2.0094V12.7446L13.0094 10.4696Z" fill="#172B4D"/>
<path d="M1.50981 1.12889C1.3925 1.19569 1.28983 1.28582 1.20796 1.39301L1.50981 1.12889Z" fill="#172B4D"/>
<path d="M0.874023 0.94123L1.94965 6.10352e-05L15.126 15.0589L14.0504 16.0001L0.874023 0.94123Z" fill="#172B4D"/>
</svg>
