<svg width="16" height="16" viewBox="0 0 16 16" fill="none" xmlns="http://www.w3.org/2000/svg">
<path d="M7.62898 9.94695C7.36683 10.1278 7.09466 10.2952 6.81346 10.4481L5.85523 9.276C5.48015 8.81594 4.83547 8.6577 4.29043 8.89213L1.31319 10.1668C0.715403 10.4218 0.390134 11.0664 0.533721 11.6994L1.16961 14.4598C1.31026 15.0722 1.84945 15.5001 2.47654 15.5001C5.3832 15.5012 8.07258 14.5487 10.2439 12.9354L9.31522 11.8741C7.41052 13.262 5.06749 14.0848 2.53222 14.0964L1.91978 11.4386L4.79738 10.2049L6.42958 12.2005C7.23536 11.8221 7.93445 11.4318 8.55314 11.0032L7.62898 9.94695Z" fill="#172B4D"/>
<path d="M11.7055 9.54144C13.1962 7.59715 14.0862 5.16777 14.0983 2.53034L11.4405 1.9179L10.2068 4.7955L12.2024 6.4277C11.8028 7.28031 11.3895 8.01294 10.9316 8.65699L9.9856 7.57583C10.1534 7.32953 10.3094 7.0745 10.453 6.81158L9.28081 5.85335C8.82075 5.47827 8.66251 4.83359 8.89694 4.28855L10.1716 1.31424C10.4266 0.716453 11.0713 0.388254 11.7042 0.534771L14.4646 1.17066C15.077 1.31131 15.5049 1.8505 15.5049 2.47759C15.5049 5.56301 14.4346 8.3917 12.6481 10.6187L11.7055 9.54144Z" fill="#172B4D"/>
<path d="M1.32942 0.941227L2.40505 6.10352e-05L15.5814 15.0589L14.5058 16L1.32942 0.941227Z" fill="#172B4D"/>
</svg>
